<svg width="128" height="128" viewBox="0 0 128 128" fill="none" xmlns="http://www.w3.org/2000/svg">
<rect width="128" height="128" rx="20" fill="#FBA81F"/>
<path d="M42.4205 97.8013C39.4673 99.131 33.7557 101.247 30.8392 98.7126C28.8124 96.9515 28.9251 92.5111 29.0693 90.084C29.5271 82.4006 33.8822 74.8225 38.4865 68.8671C43.9911 61.749 52.2296 56.3173 61.2073 56.0135C68.0225 55.7828 74.7365 58.5259 80.0578 62.8018C85.3791 67.0776 89.3998 72.8023 92.488 78.8984C93.9949 81.8731 95.3193 85.053 95.3699 88.3891C95.4197 91.7252 93.9489 95.2627 91.0248 96.8538C88.6805 98.1297 85.7847 97.9797 83.2479 97.153C80.7111 96.327 78.4251 94.889 76.0762 93.6208C71.7434 91.2822 66.9358 89.4611 62.0248 89.7603C54.9244 90.194 48.9106 94.879 42.4205 97.8013Z" fill="white"/>
<path d="M37.7941 60.3586C38.666 67.5653 33.2067 71.4858 27.6308 66.068C24.2113 62.7457 21.5495 56.8357 21.0725 52.0838C20.8325 49.6891 21.1246 46.9828 22.9252 45.3917C24.6507 43.8667 27.3486 43.8582 29.4076 44.8864C31.4667 45.9146 32.9766 47.7934 34.163 49.7698C36.0962 52.9913 37.3424 56.6258 37.7941 60.3586Z" fill="white"/>
<path d="M58.4064 40.9526C59.5551 45.8029 58.1909 53.2887 51.6564 52.738C43.8343 52.079 42.9255 38.5432 43.7714 32.9654C44.0881 30.8736 44.8987 28.5381 46.8657 27.7737C48.22 27.2469 49.7975 27.6514 50.993 28.4796C52.1878 29.3071 53.0697 30.5076 53.8926 31.708C55.8396 34.5527 57.6111 37.595 58.4064 40.9526Z" fill="white"/>
<path d="M85.6085 37.779C85.679 34.5653 84.9643 31.1915 82.86 28.7667C80.7557 26.342 77.0364 25.1707 74.1959 26.6604C71.2473 28.2061 70.1622 31.8544 69.676 35.1543C69.0149 39.6355 67.9482 47.8703 71.212 51.6455C73.255 54.0087 76.3186 52.7791 78.6614 51.414C83.2573 48.7347 85.4973 42.8854 85.6085 37.779Z" fill="white"/>
<path d="M104.856 67.1824C100.254 71.5352 90.848 70.1863 91.6785 62.6782C92.2399 57.5995 95.687 52.367 98.8112 48.4703C100.717 46.094 103.505 43.7992 106.474 44.4613C108.828 44.9866 110.448 47.3167 110.86 49.7C111.271 52.0832 110.708 54.5195 110.07 56.852C109.037 60.6218 107.693 64.5 104.856 67.1824Z" fill="white"/>
</svg>
