<svg width="111" height="24" viewBox="0 0 111 24" fill="none" xmlns="http://www.w3.org/2000/svg">
<path d="M6.20328 21.4333C5.42468 21.7927 3.91884 22.3646 3.14994 21.6797C2.61558 21.2036 2.6453 20.0034 2.68331 19.3474C2.80401 17.2706 3.9522 15.2224 5.16609 13.6127C6.61734 11.6887 8.78937 10.2205 11.1563 10.1384C12.9531 10.0761 14.7232 10.8175 16.1261 11.9732C17.529 13.129 18.5891 14.6763 19.4032 16.324C19.8005 17.1281 20.1497 17.9876 20.163 18.8893C20.1762 19.791 19.7884 20.7472 19.0175 21.1772C18.3994 21.5221 17.636 21.4816 16.9672 21.2581C16.2984 21.0349 15.6957 20.6462 15.0764 20.3034C13.9341 19.6713 12.6666 19.179 11.3718 19.2599C9.49983 19.3771 7.91433 20.6435 6.20328 21.4333Z" fill="black"/>
<path d="M4.42766 11.2853C4.65754 13.2332 3.21821 14.2929 1.74816 12.8285C0.846637 11.9305 0.144868 10.3331 0.0191115 9.0487C-0.044171 8.40141 0.0328599 7.66994 0.50758 7.23987C0.962486 6.82767 1.67376 6.82539 2.21661 7.1033C2.75947 7.38121 3.15756 7.88903 3.47033 8.42324C3.98003 9.29398 4.30857 10.2763 4.42766 11.2853Z" fill="black"/>
<path d="M9.86263 6.04016C10.1655 7.35116 9.80581 9.37451 8.08303 9.22568C6.02079 9.04754 5.78121 5.38893 6.00421 3.88129C6.08771 3.3159 6.30142 2.68462 6.82001 2.478C7.17706 2.33561 7.59295 2.44495 7.90815 2.66882C8.22315 2.89248 8.45565 3.21696 8.67259 3.54143C9.18593 4.31032 9.65297 5.13263 9.86263 6.04016Z" fill="black"/>
<path d="M17.034 5.18379C17.0526 4.31512 16.8641 3.40322 16.3093 2.74783C15.7546 2.09243 14.774 1.77586 14.0251 2.17849C13.2477 2.5963 12.9616 3.5824 12.8335 4.47435C12.6592 5.68557 12.3779 7.91138 13.2384 8.93178C13.777 9.57055 14.5847 9.23818 15.2024 8.86922C16.4141 8.14502 17.0046 6.564 17.034 5.18379Z" fill="black"/>
<path d="M22.108 13.1296C20.8947 14.3061 18.4148 13.9415 18.6337 11.9122C18.7817 10.5394 19.6905 9.12512 20.5142 8.07187C21.0166 7.42957 21.7517 6.80931 22.5344 6.98828C23.1551 7.13025 23.5821 7.76008 23.6907 8.40425C23.799 9.04842 23.6508 9.70693 23.4824 10.3374C23.2101 11.3563 22.8559 12.4046 22.108 13.1296Z" fill="black"/>
<path d="M42.4485 6.768V18H39.7125V13.376H35.4565V18H32.7205V6.768H35.4565V11.168H39.7125V6.768H42.4485ZM52.8396 13.392C52.8396 13.648 52.8236 13.9147 52.7916 14.192H46.5996C46.6423 14.7467 46.8183 15.1733 47.1276 15.472C47.4476 15.76 47.837 15.904 48.2956 15.904C48.9783 15.904 49.453 15.616 49.7196 15.04H52.6316C52.4823 15.6267 52.2103 16.1547 51.8156 16.624C51.4316 17.0933 50.9463 17.4613 50.3596 17.728C49.773 17.9947 49.117 18.128 48.3916 18.128C47.517 18.128 46.7383 17.9413 46.0556 17.568C45.373 17.1947 44.8396 16.6613 44.4556 15.968C44.0716 15.2747 43.8796 14.464 43.8796 13.536C43.8796 12.608 44.0663 11.7973 44.4396 11.104C44.8236 10.4107 45.357 9.87733 46.0396 9.504C46.7223 9.13067 47.5063 8.944 48.3916 8.944C49.2556 8.944 50.0236 9.12533 50.6956 9.488C51.3676 9.85067 51.8903 10.368 52.2636 11.04C52.6476 11.712 52.8396 12.496 52.8396 13.392ZM50.0396 12.672C50.0396 12.2027 49.8796 11.8293 49.5596 11.552C49.2396 11.2747 48.8396 11.136 48.3596 11.136C47.901 11.136 47.5116 11.2693 47.1916 11.536C46.8823 11.8027 46.6903 12.1813 46.6156 12.672H50.0396ZM67.099 9.072L64.683 18H61.659L60.251 12.208L58.795 18H55.787L53.355 9.072H56.091L57.355 15.456L58.859 9.072H61.755L63.275 15.424L64.523 9.072H67.099ZM67.5984 13.52C67.5984 12.6027 67.7691 11.7973 68.1104 11.104C68.4624 10.4107 68.9371 9.87733 69.5344 9.504C70.1317 9.13067 70.7984 8.944 71.5344 8.944C72.1637 8.944 72.7131 9.072 73.1824 9.328C73.6624 9.584 74.0304 9.92 74.2864 10.336V9.072H77.0224V18H74.2864V16.736C74.0197 17.152 73.6464 17.488 73.1664 17.744C72.6971 18 72.1477 18.128 71.5184 18.128C70.7931 18.128 70.1317 17.9413 69.5344 17.568C68.9371 17.184 68.4624 16.6453 68.1104 15.952C67.7691 15.248 67.5984 14.4373 67.5984 13.52ZM74.2864 13.536C74.2864 12.8533 74.0944 12.3147 73.7104 11.92C73.3371 11.5253 72.8784 11.328 72.3344 11.328C71.7904 11.328 71.3264 11.5253 70.9424 11.92C70.5691 12.304 70.3824 12.8373 70.3824 13.52C70.3824 14.2027 70.5691 14.7467 70.9424 15.152C71.3264 15.5467 71.7904 15.744 72.3344 15.744C72.8784 15.744 73.3371 15.5467 73.7104 15.152C74.0944 14.7573 74.2864 14.2187 74.2864 13.536ZM84.4418 8.976C85.4871 8.976 86.3191 9.31733 86.9378 10C87.5671 10.672 87.8818 11.6 87.8818 12.784V18H85.1618V13.152C85.1618 12.5547 85.0071 12.0907 84.6978 11.76C84.3884 11.4293 83.9724 11.264 83.4498 11.264C82.9271 11.264 82.5111 11.4293 82.2018 11.76C81.8924 12.0907 81.7378 12.5547 81.7378 13.152V18H79.0018V9.072H81.7378V10.256C82.0151 9.86133 82.3884 9.552 82.8578 9.328C83.3271 9.09333 83.8551 8.976 84.4418 8.976ZM96.295 18L92.519 13.04V18H89.783V6.768H92.519V11.696L96.263 6.768H99.479L95.127 12.272L99.639 18H96.295ZM109.755 9.072V18H107.019V16.784C106.742 17.1787 106.363 17.4987 105.883 17.744C105.414 17.9787 104.891 18.096 104.315 18.096C103.633 18.096 103.03 17.9467 102.507 17.648C101.985 17.3387 101.579 16.896 101.291 16.32C101.003 15.744 100.859 15.0667 100.859 14.288V9.072H103.579V13.92C103.579 14.5173 103.734 14.9813 104.043 15.312C104.353 15.6427 104.769 15.808 105.291 15.808C105.825 15.808 106.246 15.6427 106.555 15.312C106.865 14.9813 107.019 14.5173 107.019 13.92V9.072H109.755Z" fill="black"/>
</svg>
